<svg width="1920" height="686" viewBox="0 0 1920 686" fill="none" xmlns="http://www.w3.org/2000/svg">
<g opacity="0.22">
<path fill-rule="evenodd" clip-rule="evenodd" d="M970.655 459.961C966.515 472.691 972.449 482.552 974.81 494.673C972.71 492.098 971.711 491.102 970.981 489.945C957.831 469.081 939.486 453.843 916.971 442.897C914.223 441.561 911.237 438.534 910.529 435.775C892.699 366.49 874.596 297.264 857.819 227.741C849.64 193.848 844.079 159.369 837.121 125.197C836.765 123.443 834.458 120.79 832.956 120.722C822.973 120.265 812.804 119.293 803.005 120.609C789.327 122.445 781.01 131.361 777.265 144.016C772.089 161.508 773.593 179.254 777.668 196.477C792.252 258.104 807.182 319.663 822.785 381.06C839.982 448.723 858.065 516.177 875.768 583.721C876.313 585.799 876.925 587.857 877.485 589.855C905.547 595.62 927.674 578.96 929.114 550.931C930.511 523.752 924.427 497.447 918.577 471.132C918.029 468.675 917.552 466.206 916.801 462.573C931.469 469.869 942.499 479.316 951.014 491.428C964.442 510.526 969.572 531.447 963.983 554.095C957.121 581.911 935.788 595.548 909.361 602.858C876.123 612.051 846.191 603.099 818.776 584.671C789.892 565.26 769.281 538.785 752.05 509.712C720.611 456.667 701.711 399.171 687.938 339.934C680.09 306.171 676.106 271.983 678.089 237.36C679.845 206.709 686.524 177.231 703.306 150.622C731.407 106.06 780.505 86.2058 831.881 102.22C899.796 123.389 945.291 167.683 963.163 234.893C975.68 281.973 958.491 321.213 921.624 353.099C919.129 355.258 916.466 357.234 913.966 359.386C910.398 362.462 908.469 366.087 910.767 372.299C914.987 370.634 919.567 369.669 923.126 367.29C955.777 345.459 976.75 316.229 980.958 277.602C986.609 225.73 966.561 182.047 931.248 144.454C887.175 97.5324 831.296 76.5782 765.988 78.0773C737.326 78.7348 709.499 83.0903 683.62 95.6266C643.527 115.046 621.69 147.737 611.837 188.752C604.088 221.009 604.227 253.668 608.028 286.386C615.052 346.862 630.385 405.259 656.369 460.841C677.852 506.793 706.341 547.951 747.845 579.572C785.347 608.142 827.643 624.253 876.052 622.849C900.305 622.146 923.296 616.444 944.389 604.523C978.358 585.323 992.113 553.873 982.677 517.005C982.1 514.754 981.473 512.512 981.876 509.898C982.983 512.262 984.172 514.595 985.181 516.997C999.466 550.971 1015.6 584.048 1036.01 615.086C1045.72 629.857 1057.19 642.915 1073.7 650.995C1097.18 662.49 1119.4 655.745 1131.23 633.071C1141.89 612.63 1142.97 590.548 1141.88 568.168C1140.22 534.376 1130.72 502.031 1122.62 469.419C1122.42 468.614 1122.29 467.791 1123.19 466.561C1124.3 469.048 1125.33 471.571 1126.54 474.015C1141.12 503.528 1155.31 533.233 1170.5 562.449C1178.28 577.412 1189.58 590.086 1204.37 599.37C1232.59 617.079 1260.22 608.712 1272.76 578.476C1280.98 558.652 1281.83 537.877 1280.49 516.831C1278.02 477.862 1266.09 440.75 1256.63 403.17C1245.64 359.504 1234.8 315.781 1222.45 272.465C1217.83 256.272 1210.14 240.654 1202.03 225.691C1194.92 212.587 1183.08 203.226 1166.49 207.167C1156.12 209.631 1146.53 215.394 1136.92 220.275C1135.55 220.969 1135.2 225.262 1135.8 227.538C1146.95 269.608 1158.55 311.571 1169.6 353.667C1183.65 407.234 1197.56 460.844 1210.92 514.576C1213.59 525.338 1213.6 536.726 1214.64 547.841C1214.88 550.382 1214.65 553.05 1214.11 555.559C1212.83 561.532 1211.37 567.875 1204.41 569.93C1197.79 571.888 1192.03 568.384 1188.68 563.577C1180.37 551.648 1172.13 539.534 1165.42 526.735C1137.25 472.974 1117.26 416.117 1098.54 358.85C1087.68 325.636 1078.25 291.979 1066.97 258.904C1062.49 245.773 1055.96 232.938 1048.23 221.274C1037.15 204.554 1022.36 201.336 1003.36 209.043C981.454 217.934 981.525 217.916 987.19 239.412C1015.19 345.696 1043.23 451.972 1071.04 558.301C1074.91 573.09 1078.31 588.111 1075.66 603.579C1075.19 606.301 1074.45 609.072 1073.26 611.567C1069.98 618.48 1063.75 620.888 1057.43 616.516C1051.96 612.726 1046.94 607.731 1043.18 602.329C1025.3 576.62 1012.83 548.254 1000.41 519.869C992.959 502.825 985.144 485.923 977.268 469.054C975.908 466.142 973.433 463.718 970.655 459.961Z" fill="#C7924D" fill-opacity="0.5"/>
<path fill-rule="evenodd" clip-rule="evenodd" d="M540.268 456.732C526.978 445.994 513.017 435.938 500.527 424.394C462.636 389.368 434.167 348.375 419.264 299.379C414.92 285.1 411.611 270.489 414.624 255.479C415.583 250.702 417.323 245.897 419.667 241.593C424.855 232.062 430.364 230.066 441.167 232.747C443.219 233.257 445.313 233.6 449.682 234.485C447.59 230.253 447.018 226.961 445.007 225.433C439.318 221.106 433.542 215.554 426.906 213.963C403.115 208.261 381.101 212.568 363.297 229.78C348.99 243.613 347.949 260.682 352.892 278.532C360.025 304.291 375.175 325.89 392.145 346.299C433.087 395.536 482.407 435.776 537.101 470.012C542.899 473.641 544.974 477.446 544.896 483.954C544.637 505.234 542.641 526.173 533.339 545.762C524.279 564.844 510.559 578.717 487.472 580.789C475.257 581.884 464.147 578.073 453.569 572.644C432.193 561.674 415.809 545.307 401.313 527.007C377.686 497.173 361.568 463.343 344.703 429.763C331.73 403.933 327.682 376.047 320.157 348.947C310.699 314.894 302.414 280.524 292.327 246.651C288.879 235.073 282.572 223.918 275.706 213.738C263.85 196.16 249.215 192.645 229.367 200.858C224.665 202.805 220.289 205.478 215.617 207.505C210.049 209.922 208.707 213.193 210.362 219.163C222.877 264.254 235.383 309.352 247.14 354.631C261.441 409.707 275.292 464.894 288.651 520.188C291.447 531.762 292.293 544.027 292.103 555.943C291.939 566.215 285.693 568.805 276.027 563.968C262.698 557.301 251.25 547.952 243.1 536.035C230.596 517.751 219.543 498.539 208.082 479.601C207.194 478.134 207.111 475.16 208.071 473.858C225.72 449.9 228.906 422.341 228.299 394.308C227.255 346.049 217.416 299.429 196.669 255.259C189.256 239.476 180.123 224.671 167.228 212.367C148.628 194.616 125.87 190.886 101.536 196.222C83.4181 200.195 74.7037 213.817 70.9063 230.4C65.3733 254.565 69.0822 278.468 74.8517 302.028C90.9549 367.801 121.229 427.054 164.341 480.257C165.579 481.784 166.803 483.323 167.99 484.888C168.24 485.219 168.307 485.679 168.7 486.722C160.234 490.51 151.344 491.257 142.264 490.159C118.06 487.233 98.2182 475.514 80.1131 460.644C70.7622 452.964 61.9672 444.658 52.7232 436.851C49.64 434.249 45.9403 432.324 42.5245 430.088C41.9181 430.479 41.3104 430.871 40.7026 431.262C41.8034 434.318 42.2598 437.805 44.0991 440.369C70.8706 477.658 105.124 502.446 154.696 500.695C160.632 500.485 166.696 499.277 172.351 497.504C176.983 496.053 179.493 497.152 182.53 500.473C212.25 532.969 245.365 561.766 283.471 584.893C296.364 592.718 310.02 599.085 325.86 599.226C337.798 599.331 346.523 594.232 351.835 584.143C360.558 567.578 361.06 549.63 359.422 531.732C357.913 515.254 354.999 498.895 352.737 482.479C352.595 481.448 352.733 480.381 353.813 478.825C355.2 481.283 356.628 483.72 357.966 486.203C374.546 516.956 393.339 546.195 420.563 569.45C447.424 592.391 478.463 606.962 514.505 609.075C557.486 611.594 594.296 590.764 609.217 539.761C617.11 512.783 617.096 485.172 613.869 457.659C609.133 417.263 599.398 377.99 581.637 340.886C561.348 298.498 532.859 262.741 491.147 237.872C486.221 234.935 481.109 232.202 475.824 229.937C471.324 228.006 465.143 225.994 462.648 231.167C460.56 235.493 459.559 243.201 462.118 246.293C500.599 292.749 516.53 348.449 532.478 404.099C536.685 418.778 538.938 433.982 541.986 448.965C542.405 451.024 542.227 453.199 542.325 455.32C541.64 455.79 540.953 456.261 540.268 456.732ZM198.635 460.969C196.735 456.734 195.454 454.298 194.522 451.744C181.307 415.458 167.633 379.317 155.12 342.807C144.835 312.797 136.155 282.261 132.736 250.686C131.8 242.037 132.082 232.995 133.631 224.441C135.397 214.679 142.864 212.296 151.748 217.461C153.828 218.667 156.068 220.039 157.436 221.888C163.238 229.731 170.004 237.22 174.147 245.851C200.323 300.367 213.218 357.728 211.231 417.898C210.751 432.352 206.456 446.15 198.635 460.969Z" fill="#C7924D" fill-opacity="0.5"/>
<path fill-rule="evenodd" clip-rule="evenodd" d="M1303.32 96.9157C1392.79 113.169 1463.92 153.614 1513.99 227.466C1510.59 228.947 1508.17 229.935 1505.81 231.043C1467.88 248.821 1439.89 275.331 1428.58 315.474C1418.32 351.928 1439.37 387.422 1475.52 396.368C1499.96 402.416 1525.65 393.13 1540.76 372.296C1555.49 351.987 1559.72 328.986 1558.17 304.696C1556.84 283.86 1551.5 263.934 1543.31 244.665C1542.82 243.511 1542.53 242.278 1541.89 240.281C1555.04 239.115 1567.26 241.273 1579.07 244.798C1631.23 260.368 1673.04 289.904 1704.83 332.693C1705.73 333.903 1706.62 335.112 1707.65 336.493C1725.28 329.456 1736.39 317.444 1738.68 299.111C1741.25 278.594 1733.23 262.248 1715.3 250.97C1691.95 236.28 1665.89 228.106 1638.75 222.986C1604.9 216.597 1570.94 215.094 1536.95 221.97C1532.77 222.816 1531.5 220.309 1529.92 217.608C1516.36 194.513 1499.27 174.136 1478.86 156.367C1436.88 119.82 1387.25 97.6368 1332.83 84.8753C1316.83 81.1243 1300.52 78.2097 1284.18 76.3513C1254.87 73.0184 1238.74 86.899 1237.45 115.245C1236.33 139.655 1241.86 163.197 1247.66 186.686C1266.27 262.034 1285.07 337.336 1303.53 412.717C1314.45 457.307 1328.3 500.82 1352.09 540.839C1369.87 570.752 1391.58 597.405 1422.19 616.147C1447.15 631.424 1473.99 639.045 1503.82 633.191C1544.9 625.131 1570.84 589.882 1565.49 549.865C1562.11 524.544 1551.29 502.845 1532.77 484.839C1519.51 471.958 1503.64 464.265 1484.23 465.122C1464.23 466.005 1450.45 482.962 1453.09 503.393C1455.31 520.646 1473.77 534.027 1491.58 530.184C1520.68 523.906 1541.32 541.956 1546.24 563.41C1551.61 586.809 1534.61 610.883 1508.99 616.749C1496.85 619.526 1485.92 616.656 1475.64 610.79C1460.03 601.886 1448.98 588.585 1439.3 574.202C1418.43 543.196 1403.94 509.233 1394.11 473.832C1378.64 418.15 1364.74 362.052 1351.13 305.915C1336.4 245.163 1322.75 184.167 1308.69 123.263C1306.81 115.099 1305.33 106.851 1303.32 96.9157ZM1541.8 309.312C1541.72 330.243 1534.41 351.013 1524.06 362.496C1512.09 375.785 1496.15 378.782 1481.57 369.632C1463.87 358.516 1454.61 341.883 1456.19 321.978C1459.18 284.198 1481.21 259.156 1517.01 244.835C1519.67 243.776 1522.11 242.36 1524.07 246.399C1534.17 267.271 1541.07 288.896 1541.8 309.312Z" fill="#C7924D" fill-opacity="0.5"/>
<path fill-rule="evenodd" clip-rule="evenodd" d="M1733.51 16.291C1733.04 22.0954 1732.59 27.632 1732.13 33.2578C1742.18 36.3596 1752 39.0192 1761.54 42.4097C1785.87 51.0554 1798.02 68.2286 1798.52 93.1864C1798.68 100.947 1798.88 108.713 1798.83 116.473C1798.56 157.251 1797.81 198.031 1798.1 238.804C1798.21 253.587 1800.06 268.451 1802.31 283.107C1807.24 315.092 1827.23 335.079 1858.05 345.842C1862.15 347.274 1866.24 348.737 1870.4 351.74C1868.26 352.519 1866.09 353.231 1863.99 354.089C1855.58 357.506 1846.89 360.394 1838.88 364.523C1815.24 376.714 1804.15 397.38 1800.29 421.891C1797.94 436.749 1796.56 451.86 1796.25 466.889C1795.34 510.673 1795.27 554.474 1794.66 598.264C1794.55 605.779 1794.03 613.396 1792.59 620.764C1789.62 635.944 1780.52 647.271 1766.04 653.587C1755.76 658.075 1744.79 661.173 1733.97 664.382C1730.08 665.535 1727.76 666.66 1727.92 671.066C1728.07 675.104 1727.39 679.17 1727.02 684.073C1732.29 684.114 1737.12 684.31 1741.94 684.163C1763.8 683.494 1785.49 681.802 1806.69 675.871C1839.61 666.66 1856.79 644.557 1862.3 613.015C1863.99 603.291 1864.7 593.315 1864.83 583.442C1865.44 534.685 1865.51 485.92 1866.22 437.165C1866.4 425.377 1867.66 413.515 1869.55 401.859C1872.26 385.228 1882.62 373.78 1898.49 367.288C1905.84 364.283 1913.5 361.661 1921.28 360.083C1927.02 358.917 1929.57 356.874 1928.77 351.208C1928.5 349.313 1928.75 347.352 1928.77 344.858C1926.72 344.249 1924.67 343.667 1922.63 343.029C1915.44 340.773 1908.12 338.841 1901.1 336.165C1881.22 328.588 1871.1 313.785 1869.04 293.692C1868.03 283.847 1867.48 273.91 1867.53 264.019C1867.76 213.533 1868.55 163.045 1868.42 112.56C1868.39 100.838 1866.62 88.8668 1863.76 77.4533C1857.56 52.7278 1841.74 35.8506 1816.79 26.7067C1795.96 19.0702 1752.59 14.6166 1733.51 16.291Z" fill="#C7924D" fill-opacity="0.5"/>
<path fill-rule="evenodd" clip-rule="evenodd" d="M78.6791 628.447C54.3455 610.269 38.5811 586.708 28.2971 559.509C25.2613 551.485 22.8983 543.078 21.5863 534.65C20.7304 529.155 21.4987 523.105 22.9604 517.655C29.3222 493.975 8.84951 472.294 -14.9242 477.928C-28.7797 481.213 -39.4223 497.475 -36.964 512.869C-35.7911 520.213 -34.1861 527.902 -30.7319 534.435C-9.70918 574.216 21.6493 604.131 63.6764 623.346C68.4414 625.523 73.6673 626.77 78.6791 628.447Z" fill="#C7924D" fill-opacity="0.5"/>
</g>
</svg>
