<svg width="144" height="344" viewBox="0 0 144 344" fill="none" xmlns="http://www.w3.org/2000/svg">
<g filter="url(#filter0_dd_501_771)">
<path fill-rule="evenodd" clip-rule="evenodd" d="M47 40C49.7614 40 52 37.7614 52 35C52 32.2386 49.7614 30 47 30C44.2386 30 42 32.2386 42 35C42 37.7614 44.2386 40 47 40ZM47 90C49.7614 90 52 87.7614 52 85C52 82.2386 49.7614 80 47 80C44.2386 80 42 82.2386 42 85C42 87.7614 44.2386 90 47 90ZM52 135C52 137.761 49.7614 140 47 140C44.2386 140 42 137.761 42 135C42 132.239 44.2386 130 47 130C49.7614 130 52 132.239 52 135ZM47 190C49.7614 190 52 187.761 52 185C52 182.239 49.7614 180 47 180C44.2386 180 42 182.239 42 185C42 187.761 44.2386 190 47 190ZM52 235C52 237.761 49.7614 240 47 240C44.2386 240 42 237.761 42 235C42 232.239 44.2386 230 47 230C49.7614 230 52 232.239 52 235ZM47 290C49.7614 290 52 287.761 52 285C52 282.239 49.7614 280 47 280C44.2386 280 42 282.239 42 285C42 287.761 44.2386 290 47 290ZM102 35C102 37.7614 99.7614 40 97 40C94.2386 40 92 37.7614 92 35C92 32.2386 94.2386 30 97 30C99.7614 30 102 32.2386 102 35ZM97 90C99.7614 90 102 87.7614 102 85C102 82.2386 99.7614 80 97 80C94.2386 80 92 82.2386 92 85C92 87.7614 94.2386 90 97 90ZM102 135C102 137.761 99.7614 140 97 140C94.2386 140 92 137.761 92 135C92 132.239 94.2386 130 97 130C99.7614 130 102 132.239 102 135ZM97 190C99.7614 190 102 187.761 102 185C102 182.239 99.7614 180 97 180C94.2386 180 92 182.239 92 185C92 187.761 94.2386 190 97 190ZM102 235C102 237.761 99.7614 240 97 240C94.2386 240 92 237.761 92 235C92 232.239 94.2386 230 97 230C99.7614 230 102 232.239 102 235ZM97 290C99.7614 290 102 287.761 102 285C102 282.239 99.7614 280 97 280C94.2386 280 92 282.239 92 285C92 287.761 94.2386 290 97 290Z" fill="#C7924D"/>
</g>
<defs>
<filter id="filter0_dd_501_771" x="0" y="0" width="144" height="344" filterUnits="userSpaceOnUse" color-interpolation-filters="sRGB">
<feFlood flood-opacity="0" result="BackgroundImageFix"/>
<feColorMatrix in="SourceAlpha" type="matrix" values="0 0 0 0 0 0 0 0 0 0 0 0 0 0 0 0 0 0 127 0" result="hardAlpha"/>
<feOffset dy="12"/>
<feGaussianBlur stdDeviation="21"/>
<feColorMatrix type="matrix" values="0 0 0 0 1 0 0 0 0 0.565574 0 0 0 0 0 0 0 0 0.21 0"/>
<feBlend mode="normal" in2="BackgroundImageFix" result="effect1_dropShadow_501_771"/>
<feColorMatrix in="SourceAlpha" type="matrix" values="0 0 0 0 0 0 0 0 0 0 0 0 0 0 0 0 0 0 127 0" result="hardAlpha"/>
<feOffset dy="8"/>
<feGaussianBlur stdDeviation="9"/>
<feColorMatrix type="matrix" values="0 0 0 0 1 0 0 0 0 0.565574 0 0 0 0 0 0 0 0 0.32 0"/>
<feBlend mode="normal" in2="effect1_dropShadow_501_771" result="effect2_dropShadow_501_771"/>
<feBlend mode="normal" in="SourceGraphic" in2="effect2_dropShadow_501_771" result="shape"/>
</filter>
</defs>
</svg>
